<?xml version="1.0" encoding="UTF-8" standalone="no"?>
<!DOCTYPE svg PUBLIC "-//W3C//DTD SVG 1.1//EN" "http://www.w3.org/Graphics/SVG/1.1/DTD/svg11.dtd">
<svg width="100%" height="100%" viewBox="0 0 192 192" version="1.1" xmlns="http://www.w3.org/2000/svg" xmlns:xlink="http://www.w3.org/1999/xlink" xml:space="preserve" xmlns:serif="http://www.serif.com/" style="fill-rule:evenodd;clip-rule:evenodd;stroke-linejoin:round;stroke-miterlimit:2;">
    <g transform="matrix(1,0,0,1,-950,-350)">
        <g transform="matrix(0.96,0,0,0.96,38,14)">
            <rect x="950" y="350" width="200" height="200" style="fill:none;"/>
        </g>
        <g transform="matrix(1.24444,0,0,1.24444,-285.556,-138.889)">
            <g transform="matrix(0.964286,0,0,0.935714,38.2143,26.3571)">
                <path d="M1070,420C1069.45,426.216 1027.75,433.11 990,410C995.564,447.776 1013.98,484.809 1018.15,506.183C1020.37,517.562 1019.18,526.931 1015.04,538.244L1070,538.244L1070,420Z" style="fill:rgb(68,52,118);"/>
            </g>
            <g transform="matrix(-0.964286,0,0,0.935714,2101.79,26.3571)">
                <path d="M1070,420C1069.45,426.216 1027.75,433.11 990,410C995.564,447.776 1013.98,484.809 1018.15,506.183C1020.21,516.721 1019.18,526.931 1015.04,538.244L1070,538.244L1070,420Z" style="fill:rgb(68,52,118);"/>
            </g>
            <g transform="matrix(1,0,0,-1,-1,990.428)">
                <g transform="matrix(1,0,0,1,2.5,0)">
                    <g transform="matrix(0.706339,0,0,-0.695472,321.164,767.781)">
                        <path d="M1021.64,381.614C1021.45,401.664 1023.03,419.901 1029.73,436.183L995.041,436.183C1004.37,413.805 1011.47,394.559 1021.64,381.614Z" style="fill:white;"/>
                    </g>
                    <g transform="matrix(0.5,0,0,-0.523529,541.51,692.613)">
                        <path d="M1090.98,435.859L1028.54,420.361L1018.98,404.866L994.333,435.859L1090.98,435.859Z" style="fill:white;"/>
                    </g>
                </g>
                <g transform="matrix(-1,0,0,1,2139.5,0)">
                    <g transform="matrix(0.706339,0,0,-0.695472,321.164,767.781)">
                        <path d="M1021.64,381.614C1021.45,401.664 1023.03,419.901 1029.73,436.183L995.041,436.183C1004.37,413.805 1011.47,394.559 1021.64,381.614Z" style="fill:white;"/>
                    </g>
                    <g transform="matrix(0.5,0,0,-0.523529,541.51,692.613)">
                        <path d="M1090.98,435.859L1028.54,420.361L1018.98,404.866L994.333,435.859L1090.98,435.859Z" style="fill:white;"/>
                    </g>
                </g>
            </g>
            <g transform="matrix(1,0,0,1,-1,-11.8565)">
                <g transform="matrix(1,0,0,-1.04706,11.8877,902.573)">
                    <path d="M1021.64,381.614C1017.52,401.076 1016.66,419.578 1023.36,435.859L994.333,435.859C997.836,411.284 1006.49,392.678 1021.64,381.614Z" style="fill:white;"/>
                </g>
                <g transform="matrix(-1,0,0,-1.04706,2130.11,902.573)">
                    <path d="M1021.64,381.614C1017.52,401.076 1016.66,419.578 1023.36,435.859L994.333,435.859C997.836,411.284 1006.49,392.678 1021.64,381.614Z" style="fill:white;"/>
                </g>
                <g transform="matrix(0.5,0,0,-0.523529,541.51,674.388)">
                    <path d="M1008.85,435.859L1028.74,438.199L1038.54,444.161L1058.98,441.756L1079.42,444.161L1089.22,438.199L1109.12,435.859L1123.63,435.859C1120.12,411.284 1112.5,401.223 1097.34,390.16C1093.98,404.278 1092.06,412.288 1089.42,420.361L1028.54,420.361C1025.9,412.288 1023.98,404.278 1020.62,390.16C1005.46,401.223 997.836,411.284 994.333,435.859L1008.85,435.859Z" style="fill:white;"/>
                </g>
            </g>
        </g>
    </g>
</svg>
