<?xml version="1.0" encoding="UTF-8" standalone="no"?>
<!DOCTYPE svg PUBLIC "-//W3C//DTD SVG 1.1//EN" "http://www.w3.org/Graphics/SVG/1.1/DTD/svg11.dtd">
<svg width="100%" height="100%" viewBox="0 0 192 192" version="1.1" xmlns="http://www.w3.org/2000/svg" xmlns:xlink="http://www.w3.org/1999/xlink" xml:space="preserve" xmlns:serif="http://www.serif.com/" style="fill-rule:evenodd;clip-rule:evenodd;stroke-linejoin:round;stroke-miterlimit:2;">
    <g transform="matrix(1,0,0,1,-565.086,-273.565)">
        <g transform="matrix(6.00818,0,0,6.00818,-2889.08,-1384.8)">
            <rect x="574.911" y="276.018" width="31.956" height="31.956" style="fill:none;"/>
        </g>
        <g transform="matrix(1.53591,0,0,1.5461,-493.216,-304.167)">
            <path d="M713.361,425.591L701.597,426.41C704.774,421.898 709.933,417.145 717.255,414.727L717.419,412.109C722.232,410.981 725.177,411.002 727.154,411.619C725.224,408.315 725.946,405.323 727.726,402.456L723.063,408.51L717.828,408.428C733.245,392.743 741.593,384.363 768.385,382.904C773.708,382.614 777.063,380.875 782.62,376.604C789.525,371.298 795.25,374.123 797.264,377.75C801.567,385.499 797.379,398.211 788.265,400.411C797.558,394.185 798.786,375.592 790.065,375.541C784.295,375.507 776.906,385.231 770.022,386.258C762.974,387.309 756.955,385.599 751.615,389.939C758.707,390.182 765.193,395.721 771.412,403.601C769.389,399.782 768.31,396.621 765.195,391.821C776.113,408.075 778.868,412.778 796.2,409.164C791.819,412.734 789.783,412.576 784.911,413.091C790.004,414.998 797.231,415.459 801.489,415.314C801.489,415.314 793.869,416.734 784.583,415.464C778.921,414.689 767.485,405.483 767.485,405.483C770.079,409.447 772.637,413.274 775.012,416.363C771.19,415.906 770.926,415.382 768.631,413.5C772.484,421.322 782.238,419.558 788.101,421.436C779.375,424.342 770.731,422.565 762.004,415.873C762.004,415.873 762.869,422.051 770.921,423.972C790.969,428.753 790.333,435.967 790.38,437.353C786.648,431.452 776.541,424.978 763.804,427.162C767.636,428.455 770.335,430.532 771.33,433.789L765.113,434.034L770.267,438.206C768.665,438.647 767.077,437.791 765.113,436.407C769.621,440.501 770.547,442.297 771.003,445.242C769.553,444.733 768.335,443.76 767.322,442.379L769.531,447.86L767.24,446.633C769.833,452.397 770.107,456.199 769.858,459.558C768.396,458.069 767.829,456.794 767.158,453.505C767.249,466.225 764.96,470.737 763.313,476.984C761.204,484.983 760.738,491.015 756.769,494.409C749.735,500.422 740.898,497.025 740.898,495.636C754.581,495.345 763.329,480.851 759.632,464.467C756.84,452.094 751.688,446.944 740.652,438.779C753.939,434.457 761.098,443.892 762.822,465.53C763.125,450.107 763.293,427.927 741.143,435.507C738.542,436.397 736.509,438.133 731.735,441.852C728.571,444.317 722.536,443.688 718.96,443.162C714.878,442.563 712.179,441.403 711.528,440.952C707.885,438.426 714.838,423.752 724.127,422.745C733.79,421.697 736.767,424.231 739.425,426.099C728.599,427.368 722.354,429.193 718.727,431.334C724.724,429.394 730.156,428.394 734.844,428.635C732.186,430.321 728.666,431.72 724.7,432.971L737.298,429.616C732.849,432.246 727.621,434.486 721.427,436.243C726.958,435.07 731.932,433.898 735.498,432.725C734.054,434.342 730.426,436.426 725.927,438.697C731.572,437.531 736.289,434.799 741.716,431.662C744.263,428.76 749.191,429.192 753.496,430.025C748.312,424.169 749.411,424.045 742.043,424.462C734.513,420.015 725.949,416.622 713.361,425.591ZM738.452,412.405L734.084,419.025L737.684,419.025L740.91,414.882L745.799,419.81L751.755,419.679L743.198,411.944L750.119,403.056L744.621,403.056L740.416,409.43L733.364,403.056L729.176,403.056L738.452,412.405Z" style="fill:white;"/>
            <path d="M704.881,438.609C705.666,440.068 706.431,441.46 708.216,442.561C708.031,443.758 707.428,444.473 706.171,444.525C704.534,442.838 704.729,440.726 704.881,438.609Z" style="fill:white;"/>
            <path d="M712.185,447.918L709.829,446.74L721.282,447.246L717.133,448.018L712.185,447.918Z" style="fill:white;"/>
            <path d="M720.406,450.397C721.66,450.792 725.331,448.807 726.49,447.918C725.995,454.52 726.71,456.559 729.55,460.687C725.401,459.354 722.566,455.924 720.406,450.397Z" style="fill:white;"/>
            <path d="M710.462,451.384C711.329,451.896 713.306,452.514 714.452,452.328C714.759,455.749 716.297,459.13 717.966,461.558C715.875,461.219 711.441,455.766 710.462,451.384Z" style="fill:white;"/>
            <g transform="matrix(1,0,0,1,-1.14532,0.141859)">
                <path d="M733.306,478.186C733.729,481.114 736.656,483.762 743.405,486.298C745.944,485.984 747.152,485.174 748.084,484.615C742.139,483.602 737.139,481.083 733.306,478.186Z" style="fill:white;"/>
            </g>
            <path d="M756.776,475.228C756.765,475.334 756.452,481.153 753.706,484.622C750.985,488.06 746.738,489.316 744.7,489.879C744.689,489.882 744.673,489.897 744.669,489.888C744.664,489.878 744.7,489.88 744.696,489.87C747.022,488.375 749.303,486.82 751.87,483.592C754.494,480.295 755.371,478.458 756.776,475.228Z" style="fill:white;"/>
            <path d="M783.104,387.458C786.625,385.866 789.32,380.645 791.429,380.914C797.592,381.701 794.004,398.832 779.523,398.82C783.392,397.547 786.748,395.363 789.361,391.856C787.033,393.015 784.086,393.91 780.78,393.532C782.508,393.423 785.538,390.97 789.361,387.092C787.351,387.823 785.253,387.845 783.104,387.458Z" style="fill:white;"/>
        </g>
    </g>
</svg>
